# xmcd
#
# Track frame offsets:
#	182
#	11682
#	25837
#	40505
#	50812
#	64287
#	75217
#	84587
#	102317
#	110305
#	123540
#	136925
#	151545
#	159425
#	168515
#	180157
#	192545
#	205557
#	217435
#	229955
#
# Disc length: 3206 seconds
# Revision: 1
# Processed by: cddbd v1.5.2PL0 Copyright (c) Steve Scherf et al.
# Submitted via: dBpowerAMP V12.0
#
DISCID=040c8414
DTITLE=Johnny Cash - Classic Cash: Hall of Fame Series
DYEAR=1988
DGENRE=Country
TTITLE0=Get Rhythm
TTITLE1=Tennessee Flat Top Box
TTITLE2=Long Black Veil
TTITLE3=Thing Called Love
TTITLE4=I Still Miss Someone
TTITLE5=Cry, Cry, Cry
TTITLE6=Blue Train
TTITLE7=Sunday Morning Coming Down
TTITLE8=Five Feet High And Rising
TTITLE9=Peace In The Valley
TTITLE10=Don't Take Your Guns To Town
TTITLE11=Home Of The Blues
TTITLE12=Guess Things Happen That Way
TTITLE13=I Got Stripes
TTITLE14=I Walk The Line
TTITLE15=Ring Of Fire
TTITLE16=Ballad Of Ira Hayes
TTITLE17=The Ways Of A Woman In Love
TTITLE18=Folsom Prison Blues
TTITLE19=Suppertime
EXTD=
EXTT0=
EXTT1=
EXTT2=
EXTT3=
EXTT4=
EXTT5=
EXTT6=
EXTT7=
EXTT8=
EXTT9=
EXTT10=
EXTT11=
EXTT12=
EXTT13=
EXTT14=
EXTT15=
EXTT16=
EXTT17=
EXTT18=
EXTT19=
PLAYORDER=
